<svg height="200" viewBox="0 0 200 200" width="200" xmlns="http://www.w3.org/2000/svg">
    <g fill="#fff" fill-rule="evenodd">
        <path d="m100 0v18.0000112c-.0149984-.0000072-.0299978-.0000112-.0449982-.0000112-45.2624977 0-81.9550018 36.6925041-81.9550018 81.9550018 0 45.2624982 36.6925041 81.9550022 81.9550018 81.9550022 45.2474972 0 81.9306802-36.668188 81.9549902-81.910004h18.090008c0 55.228475-44.771525 100-100 100s-100-44.771525-100-100 44.771525-100 100-100z" fill-opacity=".4"/>
        <path d="m0 100h18.0000112zm100 81.909992v18.090008zm100-81.909992h-18.090008c.000008-.0149984.000012-.0299978.000012-.0449982 0-45.2474973-36.668188-81.9306805-81.910004-81.9549897v-18.0000121c55.228475 0 100 44.771525 100 100z"/>
    </g>
</svg>
